<?xml version="1.0" encoding="UTF-8"?>
<svg xmlns="http://www.w3.org/2000/svg" style="display:none" aria-hidden="true">

<defs>
  <symbol id="icon-chat" viewBox="0 0 24 24" fill="none" stroke="currentColor" stroke-width="1.7" stroke-linecap="round" stroke-linejoin="round"><path d="M21 12c0 4.4-4 8-9 8a9.6 9.6 0 0 1-3.5-.7L3 21l1.7-4.5A8 8 0 0 1 3 12c0-4.4 4-8 9-8s9 3.6 9 8z"></path></symbol>
  <symbol id="icon-spaces" viewBox="0 0 24 24" fill="none" stroke="currentColor" stroke-width="1.7" stroke-linecap="round" stroke-linejoin="round"><rect x="3" y="3" width="8" height="8" rx="1.5"></rect><rect x="13" y="3" width="8" height="8" rx="1.5"></rect><rect x="3" y="13" width="8" height="8" rx="1.5"></rect><circle cx="17" cy="17" r="4"></circle></symbol>
  <symbol id="icon-lists" viewBox="0 0 24 24" fill="none" stroke="currentColor" stroke-width="1.7" stroke-linecap="round" stroke-linejoin="round"><path d="m3 6 1.5 1.5L7 5"></path><path d="m3 12 1.5 1.5L7 11"></path><path d="m3 18 1.5 1.5L7 17"></path><path d="M11 6h10M11 12h10M11 18h7"></path></symbol>
  <symbol id="icon-cal" viewBox="0 0 24 24" fill="none" stroke="currentColor" stroke-width="1.7" stroke-linecap="round" stroke-linejoin="round"><rect x="3" y="5" width="18" height="16" rx="2"></rect><path d="M3 10h18M8 3v4M16 3v4"></path><circle cx="12" cy="15" r="1.5" fill="currentColor"></circle></symbol>
  <symbol id="icon-dash" viewBox="0 0 24 24" fill="none" stroke="currentColor" stroke-width="1.7" stroke-linecap="round" stroke-linejoin="round"><circle cx="12" cy="12" r="9"></circle><path d="M12 7v5l3 2"></path></symbol>
  <symbol id="icon-ledger" viewBox="0 0 24 24" fill="none" stroke="currentColor" stroke-width="1.7" stroke-linecap="round" stroke-linejoin="round"><path d="M12 22s8-4 8-10V5l-8-3-8 3v7c0 6 8 10 8 10z"></path><path d="m9 12 2 2 4-4"></path></symbol>
  <symbol id="icon-memo" viewBox="0 0 24 24" fill="none" stroke="currentColor" stroke-width="1.7" stroke-linecap="round" stroke-linejoin="round"><path d="M12 20h9"></path><path d="M16.5 3.5a2.121 2.121 0 1 1 3 3L7 19l-4 1 1-4z"></path></symbol>
  <symbol id="icon-quote" viewBox="0 0 24 24" fill="currentColor"><path d="M7 14c-1.7 0-3-1.3-3-3 0-2.5 1.7-4.7 4-5.5l1 1.5C7.6 7.4 6.5 8.5 6.4 10c.2-.1.4-.1.6-.1 1.7 0 3 1.3 3 3s-1.3 3-3 3zm10 0c-1.7 0-3-1.3-3-3 0-2.5 1.7-4.7 4-5.5l1 1.5c-1.4.4-2.5 1.5-2.6 3 .2-.1.4-.1.6-.1 1.7 0 3 1.3 3 3s-1.3 3-3 3z"></path></symbol>
  <symbol id="icon-code" viewBox="0 0 24 24" fill="none" stroke="currentColor" stroke-width="1.7" stroke-linecap="round" stroke-linejoin="round"><path d="M20.6 13.4 13.4 20.6a2 2 0 0 1-2.8 0L2 12V2h10l8.6 8.6a2 2 0 0 1 0 2.8z"></path><circle cx="7" cy="7" r="1.5" fill="currentColor"></circle></symbol>
  <symbol id="icon-question" viewBox="0 0 24 24" fill="none" stroke="currentColor" stroke-width="1.7" stroke-linecap="round" stroke-linejoin="round"><circle cx="12" cy="12" r="9"></circle><path d="M9.1 9a3 3 0 0 1 5.8 1c0 2-3 3-3 3"></path><circle cx="12" cy="17" r="0.5" fill="currentColor"></circle></symbol>
  <symbol id="icon-focus" viewBox="0 0 24 24" fill="none" stroke="currentColor" stroke-width="1.7" stroke-linecap="round" stroke-linejoin="round"><path d="M3 8V5a2 2 0 0 1 2-2h3M21 8V5a2 2 0 0 0-2-2h-3M3 16v3a2 2 0 0 0 2 2h3M21 16v3a2 2 0 0 1-2 2h-3"></path></symbol>
  <symbol id="icon-pdf" viewBox="0 0 24 24" fill="none" stroke="currentColor" stroke-width="1.7" stroke-linecap="round" stroke-linejoin="round"><path d="M14 3H6a2 2 0 0 0-2 2v14a2 2 0 0 0 2 2h12a2 2 0 0 0 2-2V9z"></path><path d="M14 3v6h6"></path><path d="M9 17v-4M9 13h2a1 1 0 1 1 0 2H9"></path></symbol>
  <symbol id="icon-search" viewBox="0 0 24 24" fill="none" stroke="currentColor" stroke-width="1.7" stroke-linecap="round" stroke-linejoin="round"><circle cx="11" cy="11" r="7"></circle><path d="m20 20-3.5-3.5"></path></symbol>
  <symbol id="icon-plus" viewBox="0 0 24 24" fill="none" stroke="currentColor" stroke-width="1.7" stroke-linecap="round" stroke-linejoin="round"><path d="M12 5v14M5 12h14"></path></symbol>
  <symbol id="icon-send" viewBox="0 0 24 24" fill="none" stroke="currentColor" stroke-width="1.7" stroke-linecap="round" stroke-linejoin="round"><path d="M22 2L11 13M22 2l-7 20-4-9-9-4 20-7z"></path></symbol>
  <symbol id="icon-attach" viewBox="0 0 24 24" fill="none" stroke="currentColor" stroke-width="1.7" stroke-linecap="round" stroke-linejoin="round"><path d="M21.44 11.05l-9.19 9.19a6 6 0 0 1-8.49-8.49l9.19-9.19a4 4 0 0 1 5.66 5.66l-9.2 9.19a2 2 0 0 1-2.83-2.83l8.49-8.48"></path></symbol>
  <symbol id="icon-chev" viewBox="0 0 24 24" fill="none" stroke="currentColor" stroke-width="1.7" stroke-linecap="round" stroke-linejoin="round"><path d="m6 9 6 6 6-6"></path></symbol>
  <symbol id="icon-chev-r" viewBox="0 0 24 24" fill="none" stroke="currentColor" stroke-width="1.7" stroke-linecap="round" stroke-linejoin="round"><path d="m9 18 6-6-6-6"></path></symbol>
  <symbol id="icon-arrow" viewBox="0 0 24 24" fill="none" stroke="currentColor" stroke-width="1.7" stroke-linecap="round" stroke-linejoin="round"><path d="M5 12h14M12 5l7 7-7 7"></path></symbol>
  <symbol id="icon-more" viewBox="0 0 24 24" fill="currentColor"><circle cx="5" cy="12" r="1.5"></circle><circle cx="12" cy="12" r="1.5"></circle><circle cx="19" cy="12" r="1.5"></circle></symbol>
  <symbol id="icon-shield" viewBox="0 0 24 24" fill="none" stroke="currentColor" stroke-width="1.7" stroke-linecap="round" stroke-linejoin="round"><path d="M12 22s8-4 8-10V5l-8-3-8 3v7c0 6 8 10 8 10z"></path></symbol>
  <symbol id="icon-eye" viewBox="0 0 24 24" fill="none" stroke="currentColor" stroke-width="1.7" stroke-linecap="round" stroke-linejoin="round"><path d="M1 12s4-8 11-8 11 8 11 8-4 8-11 8-11-8-11-8z"></path><circle cx="12" cy="12" r="3"></circle></symbol>
  <symbol id="icon-check" viewBox="0 0 24 24" fill="none" stroke="currentColor" stroke-width="1.7" stroke-linecap="round" stroke-linejoin="round"><path d="M20 6L9 17l-5-5"></path></symbol>
  <symbol id="icon-link" viewBox="0 0 24 24" fill="none" stroke="currentColor" stroke-width="1.7" stroke-linecap="round" stroke-linejoin="round"><path d="M10 13a5 5 0 0 0 7.54.54l3-3a5 5 0 0 0-7.07-7.07l-1.72 1.71M14 11a5 5 0 0 0-7.54-.54l-3 3a5 5 0 0 0 7.07 7.07l1.71-1.71"></path></symbol>
  <symbol id="icon-filter" viewBox="0 0 24 24" fill="none" stroke="currentColor" stroke-width="1.7" stroke-linecap="round" stroke-linejoin="round"><path d="M22 3H2l8 9.46V19l4 2v-8.54z"></path></symbol>
  <symbol id="icon-diamond" viewBox="0 0 24 24" fill="currentColor"><path d="M12 2 22 12 12 22 2 12z"></path></symbol>
  <symbol id="icon-menu" viewBox="0 0 24 24" fill="none" stroke="currentColor" stroke-width="1.8" stroke-linecap="round"><line x1="3" y1="7" x2="21" y2="7"></line><line x1="3" y1="12" x2="21" y2="12"></line><line x1="3" y1="17" x2="14" y2="17"></line></symbol>
  <symbol id="icon-close" viewBox="0 0 24 24" fill="none" stroke="currentColor" stroke-width="1.8" stroke-linecap="round"><path d="M18 6L6 18M6 6l12 12"></path></symbol>
  <!-- BS3 W1 — Workbench: a lens over a grid of artefacts. Reads as "view across your captured thinking". -->
  <symbol id="icon-workbench" viewBox="0 0 24 24" fill="none" stroke="currentColor" stroke-width="1.7" stroke-linecap="round" stroke-linejoin="round"><circle cx="4" cy="4" r="1.5" fill="currentColor"></circle><circle cx="11" cy="4" r="1.5" fill="currentColor"></circle><circle cx="18" cy="4" r="1.5" fill="currentColor"></circle><circle cx="4" cy="11" r="1.5" fill="currentColor"></circle><circle cx="4" cy="18" r="1.5" fill="currentColor"></circle><circle cx="11" cy="11" r="1.5" fill="currentColor"></circle><circle cx="15" cy="15" r="5"></circle><path d="m19 19 2 2"></path></symbol>
</defs>
</svg>