<svg xmlns="http://www.w3.org/2000/svg" viewBox="0 0 56 56" width="56" height="56" fill="none" stroke="currentColor" stroke-width="1.4" stroke-linecap="round" stroke-linejoin="round">
  <path d="M 14 44 Q 18 36 22 30 Q 26 24 30 22 Q 36 19 42 18"></path>
  <path d="M 22 30 Q 19 25 16 24"></path>
  <path d="M 30 22 Q 28 17 25 16"></path>
  <path d="M 36 20 Q 35 16 33 14"></path>
  <path d="M 16 24 Q 14 22 13 19 Q 12 17 14 16 Q 16 17 17 19 Q 17 22 16 24 Z" fill="currentColor" fill-opacity="0.08"></path>
  <path d="M 25 16 Q 23 14 22 11 Q 22 9 24 9 Q 26 9 27 11 Q 27 14 25 16 Z" fill="currentColor" fill-opacity="0.08"></path>
  <path d="M 33 14 Q 32 11 32 9 Q 33 7 35 8 Q 37 9 37 11 Q 36 13 33 14 Z" fill="currentColor" fill-opacity="0.08"></path>
</svg>